<svg width="511.98mm" height="511.98mm" version="1.1" viewBox="0 0 511.98 511.98" xmlns="http://www.w3.org/2000/svg">
	<g transform="matrix(2.1333 0 0 2.1333 -943.99 -235.37)" fill="#09437d">
		<path d="m562.5 140.95c-46.415 0-84.649 35.519-88.967 80.818l10.552-3.8372c2.6153-16.737 10.445-31.726 21.778-43.259l-1.4878-2.5391 2.5345 1.4926c14.31-14.032 33.925-22.674 55.59-22.674h2.5e-4v-10zm8.5576 0.40768 3.8372 10.552c16.737 2.6152 31.725 10.445 43.259 21.778l2.5396-1.488-1.4929 2.5347c14.032 14.31 22.675 33.925 22.675 55.59h10c0-46.415-35.52-84.649-80.818-88.967zm-97.932 88.967v4.9e-4c0 46.415 35.52 84.65 80.818 88.967l-3.8372-10.552c-16.737-2.6152-31.726-10.445-43.26-21.778l-2.5386 1.4876 1.4924-2.534c-14.032-14.31-22.675-33.925-22.675-55.591v-4.9e-4zm178.34 8.5574-10.552 3.8372c-2.6151 16.737-10.444 31.725-21.778 43.259l1.4878 2.5393-2.5345-1.4929c-14.31 14.032-33.925 22.675-55.591 22.675v9.9999c46.415-1.3e-4 84.649-35.52 88.967-80.818z"/>
		<path transform="matrix(.12402 0 0 .12402 442.5 110.33)" d="m967.56 0.0039062c-533.65 0-967.56 433.91-967.56 967.56 0 533.65 433.91 967.56 967.56 967.56s967.56-433.91 967.56-967.56c0-533.65-433.91-967.56-967.56-967.56zm2e-3 60.469 22.094 60.758c458.03 11.678 824.52 385.43 824.52 846.33h60.475l-60.758 22.094c-11.676 458.04-385.43 824.52-846.33 824.52v60.471l-22.092-60.752c-458.04-11.676-824.52-385.43-824.52-846.33v-4e-3h-60.471l60.752-22.092c11.678-458.04 385.43-824.52 846.33-824.52h2e-3z"/>
	</g>
	<g transform="translate(-442.48 161.67)" fill="#0e94f2">
		<path transform="matrix(.26458 0 0 .26458 442.5 -161.67)" d="m967.56 60.473-241.89 665.2-665.2 241.89 665.2 241.89 241.89 665.2 241.89-665.2 665.2-241.89-665.2-241.89zm0 37.797 231.81 637.48-231.81 231.81h869.29l-637.48 231.81-231.81-231.81v869.29l-231.81-637.48 231.81-231.81h-869.29l637.48-231.81 231.81 231.81z"/>
		<path d="m752.08 176.99 70.424 41.478-41.334-70.545-21.333 7.7329 60.027 60.165-67.457-39.73z"/>
		<path d="m781.17 40.753 41.478-70.424-70.545 41.334 7.7329 21.333 60.165-60.027-39.73 67.457z"/>
		<path d="m615.84 147.9-41.478 70.424 70.545-41.334-7.7329-21.333-60.165 60.027 39.73-67.457z"/>
		<path d="m644.93 11.662-70.424-41.478 41.334 70.545 21.333-7.7329-60.027-60.165 67.457 39.73z"/>
	</g>
</svg>
