<?xml version="1.0" encoding="UTF-8" standalone="no"?><svg xmlns="http://www.w3.org/2000/svg" xmlns:xlink="http://www.w3.org/1999/xlink" contentScriptType="application/ecmascript" contentStyleType="text/css" height="484px" preserveAspectRatio="none" style="width:680px;height:484px;" version="1.1" viewBox="0 0 680 484" width="680px" zoomAndPan="magnify"><defs><filter height="300%" id="f1tosu26okvi2q" width="300%" x="-1" y="-1"><feGaussianBlur result="blurOut" stdDeviation="2.0"/><feColorMatrix in="blurOut" result="blurOut2" type="matrix" values="0 0 0 0 0 0 0 0 0 0 0 0 0 0 0 0 0 0 .4 0"/><feOffset dx="4.0" dy="4.0" in="blurOut2" result="blurOut3"/><feBlend in="SourceGraphic" in2="blurOut3" mode="normal"/></filter></defs><g><text fill="#000000" font-family="sans-serif" font-size="14" font-weight="bold" lengthAdjust="spacingAndGlyphs" textLength="160" x="261.25" y="22.9951">Opening a notebook</text><line style="stroke: #383838; stroke-width: 1.0; stroke-dasharray: 5.0,5.0;" x1="27" x2="27" y1="116.5938" y2="397.6563"/><line style="stroke: #383838; stroke-width: 1.0; stroke-dasharray: 5.0,5.0;" x1="149" x2="149" y1="116.5938" y2="397.6563"/><line style="stroke: #383838; stroke-width: 1.0; stroke-dasharray: 5.0,5.0;" x1="349" x2="349" y1="116.5938" y2="397.6563"/><line style="stroke: #383838; stroke-width: 1.0; stroke-dasharray: 5.0,5.0;" x1="436" x2="436" y1="116.5938" y2="397.6563"/><line style="stroke: #383838; stroke-width: 1.0; stroke-dasharray: 5.0,5.0;" x1="532.5" x2="532.5" y1="116.5938" y2="397.6563"/><line style="stroke: #383838; stroke-width: 1.0; stroke-dasharray: 5.0,5.0;" x1="634.5" x2="634.5" y1="116.5938" y2="397.6563"/><text fill="#000000" font-family="sans-serif" font-size="14" lengthAdjust="spacingAndGlyphs" textLength="32" x="8" y="113.292">User</text><ellipse cx="27" cy="43.2969" fill="#FFFFFF" filter="url(#f1tosu26okvi2q)" rx="8" ry="8" style="stroke: #000000; stroke-width: 2.0;"/><path d="M27,51.2969 L27,78.2969 M14,59.2969 L40,59.2969 M27,78.2969 L14,93.2969 M27,78.2969 L40,93.2969 " fill="#FFFFFF" filter="url(#f1tosu26okvi2q)" style="stroke: #000000; stroke-width: 2.0;"/><text fill="#000000" font-family="sans-serif" font-size="14" lengthAdjust="spacingAndGlyphs" textLength="32" x="8" y="409.6514">User</text><ellipse cx="27" cy="422.9531" fill="#FFFFFF" filter="url(#f1tosu26okvi2q)" rx="8" ry="8" style="stroke: #000000; stroke-width: 2.0;"/><path d="M27,430.9531 L27,457.9531 M14,438.9531 L40,438.9531 M27,457.9531 L14,472.9531 M27,457.9531 L40,472.9531 " fill="#FFFFFF" filter="url(#f1tosu26okvi2q)" style="stroke: #000000; stroke-width: 2.0;"/><rect fill="#FFFFFF" filter="url(#f1tosu26okvi2q)" height="46.5938" style="stroke: #000000; stroke-width: 1.5;" width="110" x="92" y="65"/><text fill="#000000" font-family="sans-serif" font-size="14" lengthAdjust="spacingAndGlyphs" textLength="96" x="99" y="84.9951">User Interface</text><text fill="#000000" font-family="sans-serif" font-size="14" lengthAdjust="spacingAndGlyphs" textLength="50" x="122" y="101.292">Service</text><rect fill="#FFFFFF" filter="url(#f1tosu26okvi2q)" height="46.5938" style="stroke: #000000; stroke-width: 1.5;" width="110" x="92" y="396.6563"/><text fill="#000000" font-family="sans-serif" font-size="14" lengthAdjust="spacingAndGlyphs" textLength="96" x="99" y="416.6514">User Interface</text><text fill="#000000" font-family="sans-serif" font-size="14" lengthAdjust="spacingAndGlyphs" textLength="50" x="122" y="432.9482">Service</text><rect fill="#FFFFFF" filter="url(#f1tosu26okvi2q)" height="46.5938" style="stroke: #000000; stroke-width: 1.5;" width="82" x="306" y="65"/><text fill="#000000" font-family="sans-serif" font-size="14" lengthAdjust="spacingAndGlyphs" textLength="68" x="313" y="84.9951">Notebook</text><text fill="#000000" font-family="sans-serif" font-size="14" lengthAdjust="spacingAndGlyphs" textLength="50" x="322" y="101.292">Service</text><rect fill="#FFFFFF" filter="url(#f1tosu26okvi2q)" height="46.5938" style="stroke: #000000; stroke-width: 1.5;" width="82" x="306" y="396.6563"/><text fill="#000000" font-family="sans-serif" font-size="14" lengthAdjust="spacingAndGlyphs" textLength="68" x="313" y="416.6514">Notebook</text><text fill="#000000" font-family="sans-serif" font-size="14" lengthAdjust="spacingAndGlyphs" textLength="50" x="322" y="432.9482">Service</text><rect fill="#FFFFFF" filter="url(#f1tosu26okvi2q)" height="46.5938" style="stroke: #000000; stroke-width: 1.5;" width="64" x="402" y="65"/><text fill="#000000" font-family="sans-serif" font-size="14" lengthAdjust="spacingAndGlyphs" textLength="43" x="412.5" y="84.9951">Tool A</text><text fill="#000000" font-family="sans-serif" font-size="14" lengthAdjust="spacingAndGlyphs" textLength="50" x="409" y="101.292">Service</text><rect fill="#FFFFFF" filter="url(#f1tosu26okvi2q)" height="46.5938" style="stroke: #000000; stroke-width: 1.5;" width="64" x="402" y="396.6563"/><text fill="#000000" font-family="sans-serif" font-size="14" lengthAdjust="spacingAndGlyphs" textLength="43" x="412.5" y="416.6514">Tool A</text><text fill="#000000" font-family="sans-serif" font-size="14" lengthAdjust="spacingAndGlyphs" textLength="50" x="409" y="432.9482">Service</text><rect fill="#FFFFFF" filter="url(#f1tosu26okvi2q)" height="46.5938" style="stroke: #000000; stroke-width: 1.5;" width="99" x="481.5" y="65"/><text fill="#000000" font-family="sans-serif" font-size="14" lengthAdjust="spacingAndGlyphs" textLength="85" x="488.5" y="84.9951">DB Resolver</text><text fill="#000000" font-family="sans-serif" font-size="14" lengthAdjust="spacingAndGlyphs" textLength="50" x="506" y="101.292">Service</text><rect fill="#FFFFFF" filter="url(#f1tosu26okvi2q)" height="46.5938" style="stroke: #000000; stroke-width: 1.5;" width="99" x="481.5" y="396.6563"/><text fill="#000000" font-family="sans-serif" font-size="14" lengthAdjust="spacingAndGlyphs" textLength="85" x="488.5" y="416.6514">DB Resolver</text><text fill="#000000" font-family="sans-serif" font-size="14" lengthAdjust="spacingAndGlyphs" textLength="50" x="506" y="432.9482">Service</text><text fill="#000000" font-family="sans-serif" font-size="14" lengthAdjust="spacingAndGlyphs" textLength="74" x="594.5" y="113.292">Databases</text><path d="M616.5,64.2969 C616.5,54.2969 634.5,54.2969 634.5,54.2969 C634.5,54.2969 652.5,54.2969 652.5,64.2969 L652.5,90.2969 C652.5,100.2969 634.5,100.2969 634.5,100.2969 C634.5,100.2969 616.5,100.2969 616.5,90.2969 L616.5,64.2969 " fill="#FFFFFF" filter="url(#f1tosu26okvi2q)" style="stroke: #000000; stroke-width: 1.5;"/><path d="M616.5,64.2969 C616.5,74.2969 634.5,74.2969 634.5,74.2969 C634.5,74.2969 652.5,74.2969 652.5,64.2969 " fill="none" style="stroke: #000000; stroke-width: 1.5;"/><text fill="#000000" font-family="sans-serif" font-size="14" lengthAdjust="spacingAndGlyphs" textLength="74" x="594.5" y="409.6514">Databases</text><path d="M616.5,422.9531 C616.5,412.9531 634.5,412.9531 634.5,412.9531 C634.5,412.9531 652.5,412.9531 652.5,422.9531 L652.5,448.9531 C652.5,458.9531 634.5,458.9531 634.5,458.9531 C634.5,458.9531 616.5,458.9531 616.5,448.9531 L616.5,422.9531 " fill="#FFFFFF" filter="url(#f1tosu26okvi2q)" style="stroke: #000000; stroke-width: 1.5;"/><path d="M616.5,422.9531 C616.5,432.9531 634.5,432.9531 634.5,432.9531 C634.5,432.9531 652.5,432.9531 652.5,422.9531 " fill="none" style="stroke: #000000; stroke-width: 1.5;"/><polygon fill="#000000" points="137,143.5938,147,147.5938,137,151.5938,141,147.5938" style="stroke: #000000; stroke-width: 1.0;"/><line style="stroke: #000000; stroke-width: 1.0;" x1="27" x2="143" y1="147.5938" y2="147.5938"/><text fill="#000000" font-family="sans-serif" font-size="13" lengthAdjust="spacingAndGlyphs" textLength="98" x="34" y="142.6606">Open notebook</text><polygon fill="#000000" points="337,172.7266,347,176.7266,337,180.7266,341,176.7266" style="stroke: #000000; stroke-width: 1.0;"/><line style="stroke: #000000; stroke-width: 1.0;" x1="149" x2="343" y1="176.7266" y2="176.7266"/><text fill="#000000" font-family="sans-serif" font-size="13" lengthAdjust="spacingAndGlyphs" textLength="116" x="156" y="171.7935">Request notebook</text><polygon fill="#000000" points="521,201.8594,531,205.8594,521,209.8594,525,205.8594" style="stroke: #000000; stroke-width: 1.0;"/><line style="stroke: #000000; stroke-width: 1.0;" x1="349" x2="527" y1="205.8594" y2="205.8594"/><text fill="#000000" font-family="sans-serif" font-size="13" lengthAdjust="spacingAndGlyphs" textLength="160" x="356" y="200.9263">Request tools and values</text><polygon fill="#000000" points="622.5,230.9922,632.5,234.9922,622.5,238.9922,626.5,234.9922" style="stroke: #000000; stroke-width: 1.0;"/><line style="stroke: #000000; stroke-width: 1.0;" x1="533" x2="628.5" y1="234.9922" y2="234.9922"/><text fill="#000000" font-family="sans-serif" font-size="13" lengthAdjust="spacingAndGlyphs" textLength="38" x="540" y="230.0591">Query</text><polygon fill="#000000" points="544,245.125,534,249.125,544,253.125,540,249.125" style="stroke: #000000; stroke-width: 1.0;"/><line style="stroke: #000000; stroke-width: 1.0;" x1="538" x2="633.5" y1="249.125" y2="249.125"/><polygon fill="#000000" points="360,274.125,350,278.125,360,282.125,356,278.125" style="stroke: #000000; stroke-width: 1.0;"/><line style="stroke: #000000; stroke-width: 1.0;" x1="354" x2="532" y1="278.125" y2="278.125"/><text fill="#000000" font-family="sans-serif" font-size="13" lengthAdjust="spacingAndGlyphs" textLength="150" x="366" y="273.1919">Return tools and values</text><polygon fill="#000000" points="424,303.2578,434,307.2578,424,311.2578,428,307.2578" style="stroke: #000000; stroke-width: 1.0;"/><line style="stroke: #000000; stroke-width: 1.0;" x1="349" x2="430" y1="307.2578" y2="307.2578"/><text fill="#000000" font-family="sans-serif" font-size="13" lengthAdjust="spacingAndGlyphs" textLength="62" x="356" y="302.3247">get /fields</text><polygon fill="#000000" points="360,317.3906,350,321.3906,360,325.3906,356,321.3906" style="stroke: #000000; stroke-width: 1.0;"/><line style="stroke: #000000; stroke-width: 1.0;" x1="354" x2="435" y1="321.3906" y2="321.3906"/><polygon fill="#000000" points="160,346.3906,150,350.3906,160,354.3906,156,350.3906" style="stroke: #000000; stroke-width: 1.0;"/><line style="stroke: #000000; stroke-width: 1.0;" x1="154" x2="348" y1="350.3906" y2="350.3906"/><text fill="#000000" font-family="sans-serif" font-size="13" lengthAdjust="spacingAndGlyphs" textLength="176" x="166" y="345.4575">Return tools with filled fields</text><polygon fill="#000000" points="38,375.5234,28,379.5234,38,383.5234,34,379.5234" style="stroke: #000000; stroke-width: 1.0;"/><line style="stroke: #000000; stroke-width: 1.0;" x1="32" x2="148" y1="379.5234" y2="379.5234"/><text fill="#000000" font-family="sans-serif" font-size="13" lengthAdjust="spacingAndGlyphs" textLength="54" x="44" y="374.5903">Show nb</text><!--
@startuml
title Opening a notebook
skinparam backgroundColor transparent
skinparam componentBackgroundColor white
skinparam componentBorderColor black
skinparam participantBackgroundColor white
skinparam participantBorderColor black
skinparam actorBackgroundColor white
skinparam actorBorderColor black
skinparam databaseBackgroundColor white
skinparam databaseBorderColor black
skinparam monochrome true
skinparam arrowColor black
actor User as user
participant "User Interface\nService" as ui
participant "Notebook\nService" as nb
participant "Tool A\nService" as a
participant "DB Resolver\nService" as dbr
database "Databases" as db

user -> ui : Open notebook
ui -> nb : Request notebook
nb -> dbr : Request tools and values
dbr -> db : Query
db -> dbr :
dbr -> nb : Return tools and values
nb -> a : get /fields
a -> nb
nb -> ui : Return tools with filled fields
ui -> user : Show nb
@enduml

PlantUML version 1.2017.15(Mon Jul 03 18:45:34 CEST 2017)
(GPL source distribution)
Java Runtime: OpenJDK Runtime Environment
JVM: OpenJDK 64-Bit Server VM
Java Version: 11.0.5+10-post-Ubuntu-0ubuntu1.118.04
Operating System: Linux
OS Version: 4.15.0-76-generic
Default Encoding: UTF-8
Language: en
Country: US
--></g></svg>