<?xml version="1.0" encoding="UTF-8" standalone="no"?><svg xmlns="http://www.w3.org/2000/svg" xmlns:xlink="http://www.w3.org/1999/xlink" contentScriptType="application/ecmascript" contentStyleType="text/css" height="411px" preserveAspectRatio="none" style="width:558px;height:411px;" version="1.1" viewBox="0 0 558 411" width="558px" zoomAndPan="magnify"><defs><filter height="300%" id="fxwwpq9qckqo7" width="300%" x="-1" y="-1"><feGaussianBlur result="blurOut" stdDeviation="2.0"/><feColorMatrix in="blurOut" result="blurOut2" type="matrix" values="0 0 0 0 0 0 0 0 0 0 0 0 0 0 0 0 0 0 .4 0"/><feOffset dx="4.0" dy="4.0" in="blurOut2" result="blurOut3"/><feBlend in="SourceGraphic" in2="blurOut3" mode="normal"/></filter></defs><g><text fill="#000000" font-family="sans-serif" font-size="14" font-weight="bold" lengthAdjust="spacingAndGlyphs" textLength="146" x="207.25" y="22.9951">Saving a notebook</text><line style="stroke: #383838; stroke-width: 1.0; stroke-dasharray: 5.0,5.0;" x1="27" x2="27" y1="116.5938" y2="324.2578"/><line style="stroke: #383838; stroke-width: 1.0; stroke-dasharray: 5.0,5.0;" x1="149" x2="149" y1="116.5938" y2="324.2578"/><line style="stroke: #383838; stroke-width: 1.0; stroke-dasharray: 5.0,5.0;" x1="276" x2="276" y1="116.5938" y2="324.2578"/><line style="stroke: #383838; stroke-width: 1.0; stroke-dasharray: 5.0,5.0;" x1="410.5" x2="410.5" y1="116.5938" y2="324.2578"/><line style="stroke: #383838; stroke-width: 1.0; stroke-dasharray: 5.0,5.0;" x1="512.5" x2="512.5" y1="116.5938" y2="324.2578"/><text fill="#000000" font-family="sans-serif" font-size="14" lengthAdjust="spacingAndGlyphs" textLength="32" x="8" y="113.292">User</text><ellipse cx="27" cy="43.2969" fill="#FFFFFF" filter="url(#fxwwpq9qckqo7)" rx="8" ry="8" style="stroke: #000000; stroke-width: 2.0;"/><path d="M27,51.2969 L27,78.2969 M14,59.2969 L40,59.2969 M27,78.2969 L14,93.2969 M27,78.2969 L40,93.2969 " fill="#FFFFFF" filter="url(#fxwwpq9qckqo7)" style="stroke: #000000; stroke-width: 2.0;"/><text fill="#000000" font-family="sans-serif" font-size="14" lengthAdjust="spacingAndGlyphs" textLength="32" x="8" y="336.2529">User</text><ellipse cx="27" cy="349.5547" fill="#FFFFFF" filter="url(#fxwwpq9qckqo7)" rx="8" ry="8" style="stroke: #000000; stroke-width: 2.0;"/><path d="M27,357.5547 L27,384.5547 M14,365.5547 L40,365.5547 M27,384.5547 L14,399.5547 M27,384.5547 L40,399.5547 " fill="#FFFFFF" filter="url(#fxwwpq9qckqo7)" style="stroke: #000000; stroke-width: 2.0;"/><rect fill="#FFFFFF" filter="url(#fxwwpq9qckqo7)" height="46.5938" style="stroke: #000000; stroke-width: 1.5;" width="110" x="92" y="65"/><text fill="#000000" font-family="sans-serif" font-size="14" lengthAdjust="spacingAndGlyphs" textLength="96" x="99" y="84.9951">User Interface</text><text fill="#000000" font-family="sans-serif" font-size="14" lengthAdjust="spacingAndGlyphs" textLength="50" x="122" y="101.292">Service</text><rect fill="#FFFFFF" filter="url(#fxwwpq9qckqo7)" height="46.5938" style="stroke: #000000; stroke-width: 1.5;" width="110" x="92" y="323.2578"/><text fill="#000000" font-family="sans-serif" font-size="14" lengthAdjust="spacingAndGlyphs" textLength="96" x="99" y="343.2529">User Interface</text><text fill="#000000" font-family="sans-serif" font-size="14" lengthAdjust="spacingAndGlyphs" textLength="50" x="122" y="359.5498">Service</text><rect fill="#FFFFFF" filter="url(#fxwwpq9qckqo7)" height="46.5938" style="stroke: #000000; stroke-width: 1.5;" width="82" x="233" y="65"/><text fill="#000000" font-family="sans-serif" font-size="14" lengthAdjust="spacingAndGlyphs" textLength="68" x="240" y="84.9951">Notebook</text><text fill="#000000" font-family="sans-serif" font-size="14" lengthAdjust="spacingAndGlyphs" textLength="50" x="249" y="101.292">Service</text><rect fill="#FFFFFF" filter="url(#fxwwpq9qckqo7)" height="46.5938" style="stroke: #000000; stroke-width: 1.5;" width="82" x="233" y="323.2578"/><text fill="#000000" font-family="sans-serif" font-size="14" lengthAdjust="spacingAndGlyphs" textLength="68" x="240" y="343.2529">Notebook</text><text fill="#000000" font-family="sans-serif" font-size="14" lengthAdjust="spacingAndGlyphs" textLength="50" x="249" y="359.5498">Service</text><rect fill="#FFFFFF" filter="url(#fxwwpq9qckqo7)" height="46.5938" style="stroke: #000000; stroke-width: 1.5;" width="99" x="359.5" y="65"/><text fill="#000000" font-family="sans-serif" font-size="14" lengthAdjust="spacingAndGlyphs" textLength="85" x="366.5" y="84.9951">DB Resolver</text><text fill="#000000" font-family="sans-serif" font-size="14" lengthAdjust="spacingAndGlyphs" textLength="50" x="384" y="101.292">Service</text><rect fill="#FFFFFF" filter="url(#fxwwpq9qckqo7)" height="46.5938" style="stroke: #000000; stroke-width: 1.5;" width="99" x="359.5" y="323.2578"/><text fill="#000000" font-family="sans-serif" font-size="14" lengthAdjust="spacingAndGlyphs" textLength="85" x="366.5" y="343.2529">DB Resolver</text><text fill="#000000" font-family="sans-serif" font-size="14" lengthAdjust="spacingAndGlyphs" textLength="50" x="384" y="359.5498">Service</text><text fill="#000000" font-family="sans-serif" font-size="14" lengthAdjust="spacingAndGlyphs" textLength="74" x="472.5" y="113.292">Databases</text><path d="M494.5,64.2969 C494.5,54.2969 512.5,54.2969 512.5,54.2969 C512.5,54.2969 530.5,54.2969 530.5,64.2969 L530.5,90.2969 C530.5,100.2969 512.5,100.2969 512.5,100.2969 C512.5,100.2969 494.5,100.2969 494.5,90.2969 L494.5,64.2969 " fill="#FFFFFF" filter="url(#fxwwpq9qckqo7)" style="stroke: #000000; stroke-width: 1.5;"/><path d="M494.5,64.2969 C494.5,74.2969 512.5,74.2969 512.5,74.2969 C512.5,74.2969 530.5,74.2969 530.5,64.2969 " fill="none" style="stroke: #000000; stroke-width: 1.5;"/><text fill="#000000" font-family="sans-serif" font-size="14" lengthAdjust="spacingAndGlyphs" textLength="74" x="472.5" y="336.2529">Databases</text><path d="M494.5,349.5547 C494.5,339.5547 512.5,339.5547 512.5,339.5547 C512.5,339.5547 530.5,339.5547 530.5,349.5547 L530.5,375.5547 C530.5,385.5547 512.5,385.5547 512.5,385.5547 C512.5,385.5547 494.5,385.5547 494.5,375.5547 L494.5,349.5547 " fill="#FFFFFF" filter="url(#fxwwpq9qckqo7)" style="stroke: #000000; stroke-width: 1.5;"/><path d="M494.5,349.5547 C494.5,359.5547 512.5,359.5547 512.5,359.5547 C512.5,359.5547 530.5,359.5547 530.5,349.5547 " fill="none" style="stroke: #000000; stroke-width: 1.5;"/><polygon fill="#000000" points="137,143.5938,147,147.5938,137,151.5938,141,147.5938" style="stroke: #000000; stroke-width: 1.0;"/><line style="stroke: #000000; stroke-width: 1.0;" x1="27" x2="143" y1="147.5938" y2="147.5938"/><text fill="#000000" font-family="sans-serif" font-size="13" lengthAdjust="spacingAndGlyphs" textLength="96" x="34" y="142.6606">Save notebook</text><polygon fill="#000000" points="264,172.7266,274,176.7266,264,180.7266,268,176.7266" style="stroke: #000000; stroke-width: 1.0;"/><line style="stroke: #000000; stroke-width: 1.0;" x1="149" x2="270" y1="176.7266" y2="176.7266"/><text fill="#000000" font-family="sans-serif" font-size="13" lengthAdjust="spacingAndGlyphs" textLength="103" x="156" y="171.7935">Send filled fields</text><polygon fill="#000000" points="399,201.8594,409,205.8594,399,209.8594,403,205.8594" style="stroke: #000000; stroke-width: 1.0;"/><line style="stroke: #000000; stroke-width: 1.0;" x1="276" x2="405" y1="205.8594" y2="205.8594"/><text fill="#000000" font-family="sans-serif" font-size="13" lengthAdjust="spacingAndGlyphs" textLength="111" x="283" y="200.9263">Update notebook</text><polygon fill="#000000" points="500.5,230.9922,510.5,234.9922,500.5,238.9922,504.5,234.9922" style="stroke: #000000; stroke-width: 1.0;"/><line style="stroke: #000000; stroke-width: 1.0;" x1="411" x2="506.5" y1="234.9922" y2="234.9922"/><text fill="#000000" font-family="sans-serif" font-size="13" lengthAdjust="spacingAndGlyphs" textLength="47" x="418" y="230.0591">Update</text><polygon fill="#000000" points="422,245.125,412,249.125,422,253.125,418,249.125" style="stroke: #000000; stroke-width: 1.0;"/><line style="stroke: #000000; stroke-width: 1.0;" x1="416" x2="511.5" y1="249.125" y2="249.125"/><polygon fill="#000000" points="287,259.125,277,263.125,287,267.125,283,263.125" style="stroke: #000000; stroke-width: 1.0;"/><line style="stroke: #000000; stroke-width: 1.0;" x1="281" x2="410" y1="263.125" y2="263.125"/><polygon fill="#000000" points="160,273.125,150,277.125,160,281.125,156,277.125" style="stroke: #000000; stroke-width: 1.0;"/><line style="stroke: #000000; stroke-width: 1.0;" x1="154" x2="275" y1="277.125" y2="277.125"/><polygon fill="#000000" points="38,302.125,28,306.125,38,310.125,34,306.125" style="stroke: #000000; stroke-width: 1.0;"/><line style="stroke: #000000; stroke-width: 1.0;" x1="32" x2="148" y1="306.125" y2="306.125"/><text fill="#000000" font-family="sans-serif" font-size="13" lengthAdjust="spacingAndGlyphs" textLength="98" x="44" y="301.1919">Display "saved"</text><!--
@startuml
title Saving a notebook
skinparam backgroundColor transparent
skinparam componentBackgroundColor white
skinparam componentBorderColor black
skinparam participantBackgroundColor white
skinparam participantBorderColor black
skinparam actorBackgroundColor white
skinparam actorBorderColor black
skinparam databaseBackgroundColor white
skinparam databaseBorderColor black
skinparam monochrome true
skinparam arrowColor black
actor User as user
participant "User Interface\nService" as ui
participant "Notebook\nService" as nb
participant "DB Resolver\nService" as dbr
database "Databases" as db

user -> ui : Save notebook
ui -> nb : Send filled fields
nb -> dbr : Update notebook
dbr -> db : Update
db -> dbr
dbr -> nb
nb -> ui
ui -> user : Display "saved"
@enduml

PlantUML version 1.2017.15(Mon Jul 03 18:45:34 CEST 2017)
(GPL source distribution)
Java Runtime: OpenJDK Runtime Environment
JVM: OpenJDK 64-Bit Server VM
Java Version: 11.0.5+10-post-Ubuntu-0ubuntu1.118.04
Operating System: Linux
OS Version: 4.15.0-76-generic
Default Encoding: UTF-8
Language: en
Country: US
--></g></svg>