<?xml version="1.0" encoding="UTF-8" standalone="no"?><svg xmlns="http://www.w3.org/2000/svg" xmlns:xlink="http://www.w3.org/1999/xlink" contentScriptType="application/ecmascript" contentStyleType="text/css" height="426px" preserveAspectRatio="none" style="width:546px;height:426px;" version="1.1" viewBox="0 0 546 426" width="546px" zoomAndPan="magnify"><defs><filter height="300%" id="fsiemly6nzirq" width="300%" x="-1" y="-1"><feGaussianBlur result="blurOut" stdDeviation="2.0"/><feColorMatrix in="blurOut" result="blurOut2" type="matrix" values="0 0 0 0 0 0 0 0 0 0 0 0 0 0 0 0 0 0 .4 0"/><feOffset dx="4.0" dy="4.0" in="blurOut2" result="blurOut3"/><feBlend in="SourceGraphic" in2="blurOut3" mode="normal"/></filter></defs><g><text fill="#000000" font-family="sans-serif" font-size="14" font-weight="bold" lengthAdjust="spacingAndGlyphs" textLength="143" x="202.25" y="22.9951">Adding a new tool</text><line style="stroke: #383838; stroke-width: 1.0; stroke-dasharray: 5.0,5.0;" x1="27" x2="27" y1="116.5938" y2="339.3906"/><line style="stroke: #383838; stroke-width: 1.0; stroke-dasharray: 5.0,5.0;" x1="221" x2="221" y1="116.5938" y2="339.3906"/><line style="stroke: #383838; stroke-width: 1.0; stroke-dasharray: 5.0,5.0;" x1="398.5" x2="398.5" y1="116.5938" y2="339.3906"/><line style="stroke: #383838; stroke-width: 1.0; stroke-dasharray: 5.0,5.0;" x1="505.5" x2="505.5" y1="116.5938" y2="339.3906"/><text fill="#000000" font-family="sans-serif" font-size="14" lengthAdjust="spacingAndGlyphs" textLength="32" x="8" y="113.292">User</text><ellipse cx="27" cy="43.2969" fill="#FFFFFF" filter="url(#fsiemly6nzirq)" rx="8" ry="8" style="stroke: #000000; stroke-width: 2.0;"/><path d="M27,51.2969 L27,78.2969 M14,59.2969 L40,59.2969 M27,78.2969 L14,93.2969 M27,78.2969 L40,93.2969 " fill="#FFFFFF" filter="url(#fsiemly6nzirq)" style="stroke: #000000; stroke-width: 2.0;"/><text fill="#000000" font-family="sans-serif" font-size="14" lengthAdjust="spacingAndGlyphs" textLength="32" x="8" y="351.3857">User</text><ellipse cx="27" cy="364.6875" fill="#FFFFFF" filter="url(#fsiemly6nzirq)" rx="8" ry="8" style="stroke: #000000; stroke-width: 2.0;"/><path d="M27,372.6875 L27,399.6875 M14,380.6875 L40,380.6875 M27,399.6875 L14,414.6875 M27,399.6875 L40,414.6875 " fill="#FFFFFF" filter="url(#fsiemly6nzirq)" style="stroke: #000000; stroke-width: 2.0;"/><rect fill="#FFFFFF" filter="url(#fsiemly6nzirq)" height="46.5938" style="stroke: #000000; stroke-width: 1.5;" width="110" x="164" y="65"/><text fill="#000000" font-family="sans-serif" font-size="14" lengthAdjust="spacingAndGlyphs" textLength="96" x="171" y="84.9951">User Interface</text><text fill="#000000" font-family="sans-serif" font-size="14" lengthAdjust="spacingAndGlyphs" textLength="50" x="194" y="101.292">Service</text><rect fill="#FFFFFF" filter="url(#fsiemly6nzirq)" height="46.5938" style="stroke: #000000; stroke-width: 1.5;" width="110" x="164" y="338.3906"/><text fill="#000000" font-family="sans-serif" font-size="14" lengthAdjust="spacingAndGlyphs" textLength="96" x="171" y="358.3857">User Interface</text><text fill="#000000" font-family="sans-serif" font-size="14" lengthAdjust="spacingAndGlyphs" textLength="50" x="194" y="374.6826">Service</text><rect fill="#FFFFFF" filter="url(#fsiemly6nzirq)" height="46.5938" style="stroke: #000000; stroke-width: 1.5;" width="121" x="336.5" y="65"/><text fill="#000000" font-family="sans-serif" font-size="14" lengthAdjust="spacingAndGlyphs" textLength="107" x="343.5" y="84.9951">Service Fetcher</text><text fill="#000000" font-family="sans-serif" font-size="14" lengthAdjust="spacingAndGlyphs" textLength="50" x="372" y="101.292">Service</text><rect fill="#FFFFFF" filter="url(#fsiemly6nzirq)" height="46.5938" style="stroke: #000000; stroke-width: 1.5;" width="121" x="336.5" y="338.3906"/><text fill="#000000" font-family="sans-serif" font-size="14" lengthAdjust="spacingAndGlyphs" textLength="107" x="343.5" y="358.3857">Service Fetcher</text><text fill="#000000" font-family="sans-serif" font-size="14" lengthAdjust="spacingAndGlyphs" textLength="50" x="372" y="374.6826">Service</text><rect fill="#FFFFFF" filter="url(#fsiemly6nzirq)" height="46.5938" style="stroke: #000000; stroke-width: 1.5;" width="64" x="471.5" y="65"/><text fill="#000000" font-family="sans-serif" font-size="14" lengthAdjust="spacingAndGlyphs" textLength="43" x="482" y="84.9951">Tool A</text><text fill="#000000" font-family="sans-serif" font-size="14" lengthAdjust="spacingAndGlyphs" textLength="50" x="478.5" y="101.292">Service</text><rect fill="#FFFFFF" filter="url(#fsiemly6nzirq)" height="46.5938" style="stroke: #000000; stroke-width: 1.5;" width="64" x="471.5" y="338.3906"/><text fill="#000000" font-family="sans-serif" font-size="14" lengthAdjust="spacingAndGlyphs" textLength="43" x="482" y="358.3857">Tool A</text><text fill="#000000" font-family="sans-serif" font-size="14" lengthAdjust="spacingAndGlyphs" textLength="50" x="478.5" y="374.6826">Service</text><polygon fill="#000000" points="209,143.5938,219,147.5938,209,151.5938,213,147.5938" style="stroke: #000000; stroke-width: 1.0;"/><line style="stroke: #000000; stroke-width: 1.0;" x1="27" x2="215" y1="147.5938" y2="147.5938"/><text fill="#000000" font-family="sans-serif" font-size="13" lengthAdjust="spacingAndGlyphs" textLength="82" x="34" y="142.6606">Add new tool</text><polygon fill="#000000" points="387,172.7266,397,176.7266,387,180.7266,391,176.7266" style="stroke: #000000; stroke-width: 1.0;"/><line style="stroke: #000000; stroke-width: 1.0;" x1="221" x2="393" y1="176.7266" y2="176.7266"/><text fill="#000000" font-family="sans-serif" font-size="13" lengthAdjust="spacingAndGlyphs" textLength="154" x="228" y="171.7935">Request all tool services</text><polygon fill="#000000" points="232,186.8594,222,190.8594,232,194.8594,228,190.8594" style="stroke: #000000; stroke-width: 1.0;"/><line style="stroke: #000000; stroke-width: 1.0;" x1="226" x2="398" y1="190.8594" y2="190.8594"/><polygon fill="#000000" points="38,215.8594,28,219.8594,38,223.8594,34,219.8594" style="stroke: #000000; stroke-width: 1.0;"/><line style="stroke: #000000; stroke-width: 1.0;" x1="32" x2="220" y1="219.8594" y2="219.8594"/><text fill="#000000" font-family="sans-serif" font-size="13" lengthAdjust="spacingAndGlyphs" textLength="129" x="44" y="214.9263">Show available tools</text><polygon fill="#000000" points="209,244.9922,219,248.9922,209,252.9922,213,248.9922" style="stroke: #000000; stroke-width: 1.0;"/><line style="stroke: #000000; stroke-width: 1.0;" x1="27" x2="215" y1="248.9922" y2="248.9922"/><text fill="#000000" font-family="sans-serif" font-size="13" lengthAdjust="spacingAndGlyphs" textLength="81" x="34" y="244.0591">Select tool A</text><polygon fill="#000000" points="493.5,274.125,503.5,278.125,493.5,282.125,497.5,278.125" style="stroke: #000000; stroke-width: 1.0;"/><line style="stroke: #000000; stroke-width: 1.0;" x1="221" x2="499.5" y1="278.125" y2="278.125"/><text fill="#000000" font-family="sans-serif" font-size="13" lengthAdjust="spacingAndGlyphs" textLength="64" x="228" y="273.1919">Get /fields</text><polygon fill="#000000" points="232,288.2578,222,292.2578,232,296.2578,228,292.2578" style="stroke: #000000; stroke-width: 1.0;"/><line style="stroke: #000000; stroke-width: 1.0;" x1="226" x2="504.5" y1="292.2578" y2="292.2578"/><polygon fill="#000000" points="38,317.2578,28,321.2578,38,325.2578,34,321.2578" style="stroke: #000000; stroke-width: 1.0;"/><line style="stroke: #000000; stroke-width: 1.0;" x1="32" x2="220" y1="321.2578" y2="321.2578"/><text fill="#000000" font-family="sans-serif" font-size="13" lengthAdjust="spacingAndGlyphs" textLength="170" x="44" y="316.3247">Show new tool in notebook</text><!--
@startuml
title Adding a new tool
skinparam backgroundColor transparent
skinparam componentBackgroundColor white
skinparam componentBorderColor black
skinparam participantBackgroundColor white
skinparam participantBorderColor black
skinparam actorBackgroundColor white
skinparam actorBorderColor black
skinparam databaseBackgroundColor white
skinparam databaseBorderColor black
skinparam monochrome true
skinparam arrowColor black
actor User as user
participant "User Interface\nService" as ui
participant "Service Fetcher\nService" as sf
participant "Tool A\nService" as a

user -> ui : Add new tool
ui -> sf : Request all tool services
sf -> ui :
ui -> user : Show available tools
user -> ui : Select tool A
ui -> a : Get /fields
a -> ui :
ui -> user : Show new tool in notebook
@enduml

PlantUML version 1.2017.15(Mon Jul 03 18:45:34 CEST 2017)
(GPL source distribution)
Java Runtime: OpenJDK Runtime Environment
JVM: OpenJDK 64-Bit Server VM
Java Version: 11.0.5+10-post-Ubuntu-0ubuntu1.118.04
Operating System: Linux
OS Version: 4.15.0-76-generic
Default Encoding: UTF-8
Language: en
Country: US
--></g></svg>